<svg xmlns="http://www.w3.org/2000/svg" viewBox="0 0 400 400" width="400" height="400" color="#2A211C">
  <title>Le Grain — groove variant. Seamless 400x400 tile.</title>
  <g id="grain" fill="currentColor">
    
<path d="M-212.6 -100.7 Q-150.1 -86.6 -89.1 -105.9" fill="none" stroke="currentColor" stroke-width="8.9" stroke-linecap="round"/>    <path d="M-120.2 1.9 Q-76.8 -15.2 -43.7 -47.9" fill="none" stroke="currentColor" stroke-width="8.8" stroke-linecap="round"/>    <path d="M-72.1 -121.1 Q-22.6 -140.4 26.8 -159.7" fill="none" stroke="currentColor" stroke-width="6.9" stroke-linecap="round"/>    <path d="M-210.2 -31.4 Q-155.3 -16.9 -101.1 -34.2" fill="none" stroke="currentColor" stroke-width="9.5" stroke-linecap="round"/>    <path d="M-135.3 -60.1 Q-101.8 -58.0 -74.4 -77.3" fill="none" stroke="currentColor" stroke-width="7.5" stroke-linecap="round"/>    <path d="M-113.8 -35.3 Q-59.9 -65.7 -3.5 -91.3" fill="none" stroke="currentColor" stroke-width="9.7" stroke-linecap="round"/>    <path d="M-212.6 299.3 Q-150.1 313.4 -89.1 294.1" fill="none" stroke="currentColor" stroke-width="8.9" stroke-linecap="round"/>    <path d="M-120.2 401.9 Q-76.8 384.8 -43.7 352.1" fill="none" stroke="currentColor" stroke-width="8.8" stroke-linecap="round"/>    <path d="M-72.1 278.9 Q-22.6 259.6 26.8 240.3" fill="none" stroke="currentColor" stroke-width="6.9" stroke-linecap="round"/>    <path d="M-64.9 15.0 Q-41.6 46.9 -14.4 75.6" fill="none" stroke="currentColor" stroke-width="6.6" stroke-linecap="round"/>    <path d="M-131.8 39.9 Q-91.6 60.5 -55.7 87.8" fill="none" stroke="currentColor" stroke-width="6.6" stroke-linecap="round"/>    <path d="M-99.3 100.1 Q-46.4 131.1 14.3 138.9" fill="none" stroke="currentColor" stroke-width="8.2" stroke-linecap="round"/>    <path d="M-117.6 187.2 Q-72.5 191.1 -27.6 197.4" fill="none" stroke="currentColor" stroke-width="6.0" stroke-linecap="round"/>    <path d="M-157.5 -20.5 Q-116.3 21.2 -78.8 66.1" fill="none" stroke="currentColor" stroke-width="5.9" stroke-linecap="round"/>    <path d="M-56.0 -5.7 Q-4.8 -6.9 36.1 24.0" fill="none" stroke="currentColor" stroke-width="10.4" stroke-linecap="round"/>    <path d="M-210.2 368.6 Q-155.3 383.1 -101.1 365.8" fill="none" stroke="currentColor" stroke-width="9.5" stroke-linecap="round"/>    <path d="M-122.0 278.1 Q-90.1 274.4 -58.0 277.6" fill="none" stroke="currentColor" stroke-width="7.6" stroke-linecap="round"/>    <path d="M-135.3 339.9 Q-101.8 342.0 -74.4 322.7" fill="none" stroke="currentColor" stroke-width="7.5" stroke-linecap="round"/>    <path d="M-176.9 149.2 Q-136.8 175.2 -90.7 187.4" fill="none" stroke="currentColor" stroke-width="9.5" stroke-linecap="round"/>    <path d="M-133.8 105.6 Q-91.2 108.1 -57.9 134.9" fill="none" stroke="currentColor" stroke-width="7.9" stroke-linecap="round"/>    <path d="M-128.1 231.4 Q-95.6 240.5 -64.1 228.4" fill="none" stroke="currentColor" stroke-width="9.6" stroke-linecap="round"/>    <path d="M-113.8 364.7 Q-59.9 334.3 -3.5 308.7" fill="none" stroke="currentColor" stroke-width="9.7" stroke-linecap="round"/>    <path d="M-84.6 152.5 Q-26.1 152.6 30.1 169.1" fill="none" stroke="currentColor" stroke-width="8.1" stroke-linecap="round"/>    <path d="M-78.3 219.3 Q-30.2 209.9 18.1 201.9" fill="none" stroke="currentColor" stroke-width="8.9" stroke-linecap="round"/>    <path d="M-64.9 415.0 Q-41.6 446.9 -14.4 475.6" fill="none" stroke="currentColor" stroke-width="6.6" stroke-linecap="round"/>    <path d="M-131.8 439.9 Q-91.6 460.5 -55.7 487.8" fill="none" stroke="currentColor" stroke-width="6.6" stroke-linecap="round"/>    <path d="M-99.3 500.1 Q-46.4 531.1 14.3 538.9" fill="none" stroke="currentColor" stroke-width="8.2" stroke-linecap="round"/>    <path d="M-157.5 379.5 Q-116.3 421.2 -78.8 466.1" fill="none" stroke="currentColor" stroke-width="5.9" stroke-linecap="round"/>    <path d="M-56.0 394.3 Q-4.8 393.1 36.1 424.0" fill="none" stroke="currentColor" stroke-width="10.4" stroke-linecap="round"/>    <path d="M-133.8 505.6 Q-91.2 508.1 -57.9 534.9" fill="none" stroke="currentColor" stroke-width="7.9" stroke-linecap="round"/>    <path d="M187.4 -100.7 Q249.9 -86.6 310.9 -105.9" fill="none" stroke="currentColor" stroke-width="8.9" stroke-linecap="round"/>    <path d="M279.8 1.9 Q323.2 -15.2 356.3 -47.9" fill="none" stroke="currentColor" stroke-width="8.8" stroke-linecap="round"/>    <path d="M327.9 -121.1 Q377.4 -140.4 426.8 -159.7" fill="none" stroke="currentColor" stroke-width="6.9" stroke-linecap="round"/>    <path d="M64.9 -11.9 Q118.0 -20.1 158.7 -55.0" fill="none" stroke="currentColor" stroke-width="7.3" stroke-linecap="round"/>    <circle cx="103.0" cy="-19.8" r="3.4"/>    <path d="M-45.9 -20.9 Q-2.6 -56.5 47.3 -82.0" fill="none" stroke="currentColor" stroke-width="10.3" stroke-linecap="round"/>    <path d="M56.3 -80.8 Q69.1 -110.3 100.9 -114.6" fill="none" stroke="currentColor" stroke-width="5.8" stroke-linecap="round"/>    <path d="M189.8 -31.4 Q244.7 -16.9 298.9 -34.2" fill="none" stroke="currentColor" stroke-width="9.5" stroke-linecap="round"/>    <path d="M148.5 -92.8 Q197.1 -102.5 242.1 -123.6" fill="none" stroke="currentColor" stroke-width="6.4" stroke-linecap="round"/>    <path d="M112.4 8.0 Q150.3 -6.1 189.2 -17.3" fill="none" stroke="currentColor" stroke-width="9.4" stroke-linecap="round"/>    <path d="M94.0 -59.4 Q152.6 -70.0 195.1 -111.8" fill="none" stroke="currentColor" stroke-width="6.2" stroke-linecap="round"/>    <path d="M264.7 -60.1 Q298.2 -58.0 325.6 -77.3" fill="none" stroke="currentColor" stroke-width="7.5" stroke-linecap="round"/>    <path d="M24.5 -46.7 Q38.4 -75.4 67.6 -88.2" fill="none" stroke="currentColor" stroke-width="10.4" stroke-linecap="round"/>    <path d="M142.6 -23.6 Q196.2 -20.5 242.9 -47.0" fill="none" stroke="currentColor" stroke-width="5.8" stroke-linecap="round"/>    <path d="M-45.7 -89.5 Q9.7 -112.2 66.2 -132.4" fill="none" stroke="currentColor" stroke-width="7.8" stroke-linecap="round"/>    <path d="M286.2 -35.3 Q340.1 -65.7 396.5 -91.3" fill="none" stroke="currentColor" stroke-width="9.7" stroke-linecap="round"/>    <path d="M26.1 6.8 Q60.5 -31.5 103.8 -59.5" fill="none" stroke="currentColor" stroke-width="6.8" stroke-linecap="round"/>    <path d="M187.4 299.3 Q249.9 313.4 310.9 294.1" fill="none" stroke="currentColor" stroke-width="8.9" stroke-linecap="round"/>    <path d="M279.8 401.9 Q323.2 384.8 356.3 352.1" fill="none" stroke="currentColor" stroke-width="8.8" stroke-linecap="round"/>    <path d="M-33.8 201.0 Q12.3 188.4 57.0 171.4" fill="none" stroke="currentColor" stroke-width="8.5" stroke-linecap="round"/>    <circle cx="6.2" cy="199.3" r="3.1"/>    <path d="M327.9 278.9 Q377.4 259.6 426.8 240.3" fill="none" stroke="currentColor" stroke-width="6.9" stroke-linecap="round"/>    <path d="M335.1 15.0 Q358.4 46.9 385.6 75.6" fill="none" stroke="currentColor" stroke-width="6.6" stroke-linecap="round"/>    <circle cx="376.8" cy="60.0" r="5.2"/>    <path d="M137.9 76.1 Q193.6 85.5 237.3 121.2" fill="none" stroke="currentColor" stroke-width="9.9" stroke-linecap="round"/>    <path d="M191.9 224.4 Q218.4 225.3 243.1 234.8" fill="none" stroke="currentColor" stroke-width="9.1" stroke-linecap="round"/>    <path d="M-35.7 71.6 Q10.0 73.8 46.2 101.8" fill="none" stroke="currentColor" stroke-width="6.8" stroke-linecap="round"/>    <path d="M64.9 388.1 Q118.0 379.9 158.7 345.0" fill="none" stroke="currentColor" stroke-width="7.3" stroke-linecap="round"/>    <circle cx="103.0" cy="380.2" r="3.4"/>    <path d="M268.2 39.9 Q308.4 60.5 344.3 87.8" fill="none" stroke="currentColor" stroke-width="6.6" stroke-linecap="round"/>    <circle cx="326.9" cy="45.2" r="3.6"/>    <path d="M210.5 27.1 Q250.3 45.5 283.5 74.3" fill="none" stroke="currentColor" stroke-width="6.8" stroke-linecap="round"/>    <circle cx="246.8" cy="51.9" r="4.4"/>    <path d="M-45.9 379.1 Q-2.6 343.5 47.3 318.0" fill="none" stroke="currentColor" stroke-width="10.3" stroke-linecap="round"/>    <path d="M46.9 55.9 Q87.7 81.4 120.7 116.4" fill="none" stroke="currentColor" stroke-width="7.0" stroke-linecap="round"/>    <circle cx="87.2" cy="82.6" r="5.1"/>    <path d="M300.7 100.1 Q353.6 131.1 414.3 138.9" fill="none" stroke="currentColor" stroke-width="8.2" stroke-linecap="round"/>    <path d="M89.4 42.8 Q138.1 81.2 199.5 89.9" fill="none" stroke="currentColor" stroke-width="7.0" stroke-linecap="round"/>    <path d="M20.2 18.7 Q61.6 8.9 96.4 33.4" fill="none" stroke="currentColor" stroke-width="10.5" stroke-linecap="round"/>    <path d="M78.9 252.2 Q121.0 242.8 162.2 230.2" fill="none" stroke="currentColor" stroke-width="8.2" stroke-linecap="round"/>    <path d="M89.1 101.4 Q141.2 111.6 181.2 146.5" fill="none" stroke="currentColor" stroke-width="6.2" stroke-linecap="round"/>    <path d="M282.4 187.2 Q327.5 191.1 372.4 197.4" fill="none" stroke="currentColor" stroke-width="6.0" stroke-linecap="round"/>    <circle cx="331.1" cy="209.6" r="4.1"/>    <path d="M83.1 189.0 Q125.0 209.3 169.6 196.0" fill="none" stroke="currentColor" stroke-width="6.8" stroke-linecap="round"/>    <circle cx="142.5" cy="171.4" r="5.5"/>    <path d="M242.5 -20.5 Q283.7 21.2 321.2 66.1" fill="none" stroke="currentColor" stroke-width="5.9" stroke-linecap="round"/>    <circle cx="290.5" cy="19.6" r="3.4"/>    <path d="M344.0 -5.7 Q395.2 -6.9 436.1 24.0" fill="none" stroke="currentColor" stroke-width="10.4" stroke-linecap="round"/>    <path d="M56.3 319.2 Q69.1 289.7 100.9 285.4" fill="none" stroke="currentColor" stroke-width="5.8" stroke-linecap="round"/>    <circle cx="94.7" cy="317.9" r="4.2"/>    <path d="M-6.9 137.2 Q36.8 151.5 79.8 135.4" fill="none" stroke="currentColor" stroke-width="10.0" stroke-linecap="round"/>    <path d="M189.8 368.6 Q244.7 383.1 298.9 365.8" fill="none" stroke="currentColor" stroke-width="9.5" stroke-linecap="round"/>    <path d="M154.2 161.3 Q186.2 153.8 210.3 176.1" fill="none" stroke="currentColor" stroke-width="5.7" stroke-linecap="round"/>    <path d="M148.5 307.2 Q197.1 297.5 242.1 276.4" fill="none" stroke="currentColor" stroke-width="6.4" stroke-linecap="round"/>    <path d="M112.4 408.0 Q150.3 393.9 189.2 382.7" fill="none" stroke="currentColor" stroke-width="9.4" stroke-linecap="round"/>    <path d="M94.0 340.6 Q152.6 330.0 195.1 288.2" fill="none" stroke="currentColor" stroke-width="6.2" stroke-linecap="round"/>    <path d="M278.0 278.1 Q309.9 274.4 342.0 277.6" fill="none" stroke="currentColor" stroke-width="7.6" stroke-linecap="round"/>    <circle cx="294.8" cy="298.9" r="4.2"/>    <path d="M264.7 339.9 Q298.2 342.0 325.6 322.7" fill="none" stroke="currentColor" stroke-width="7.5" stroke-linecap="round"/>    <path d="M223.1 149.2 Q263.2 175.2 309.3 187.4" fill="none" stroke="currentColor" stroke-width="9.5" stroke-linecap="round"/>    <path d="M24.5 353.3 Q38.4 324.6 67.6 311.8" fill="none" stroke="currentColor" stroke-width="10.4" stroke-linecap="round"/>    <path d="M174.7 97.0 Q221.4 132.0 261.4 174.5" fill="none" stroke="currentColor" stroke-width="8.5" stroke-linecap="round"/>    <circle cx="240.4" cy="120.5" r="3.8"/>    <path d="M4.0 234.3 Q45.0 235.4 82.3 218.3" fill="none" stroke="currentColor" stroke-width="6.0" stroke-linecap="round"/>    <path d="M266.2 105.6 Q308.8 108.1 342.1 134.9" fill="none" stroke="currentColor" stroke-width="7.9" stroke-linecap="round"/>    <circle cx="297.5" cy="121.1" r="4.4"/>    <path d="M121.5 222.9 Q169.9 238.5 220.7 237.6" fill="none" stroke="currentColor" stroke-width="6.5" stroke-linecap="round"/>    <path d="M142.6 376.4 Q196.2 379.5 242.9 353.0" fill="none" stroke="currentColor" stroke-width="5.8" stroke-linecap="round"/>    <circle cx="204.5" cy="359.9" r="3.6"/>    <path d="M-45.7 310.5 Q9.7 287.8 66.2 267.6" fill="none" stroke="currentColor" stroke-width="7.8" stroke-linecap="round"/>    <path d="M57.2 128.1 Q88.1 158.7 130.4 168.9" fill="none" stroke="currentColor" stroke-width="7.2" stroke-linecap="round"/>    <path d="M206.4 54.5 Q233.6 98.4 268.8 136.4" fill="none" stroke="currentColor" stroke-width="7.0" stroke-linecap="round"/>    <path d="M154.4 2.0 Q185.2 40.8 218.0 77.8" fill="none" stroke="currentColor" stroke-width="6.1" stroke-linecap="round"/>    <path d="M271.9 231.4 Q304.4 240.5 335.9 228.4" fill="none" stroke="currentColor" stroke-width="9.6" stroke-linecap="round"/>    <path d="M87.5 14.6 Q114.8 23.9 140.9 36.2" fill="none" stroke="currentColor" stroke-width="7.9" stroke-linecap="round"/>    <path d="M44.7 201.4 Q85.4 192.4 122.3 212.0" fill="none" stroke="currentColor" stroke-width="7.9" stroke-linecap="round"/>    <circle cx="85.5" cy="196.6" r="5.4"/>    <path d="M286.2 364.7 Q340.1 334.3 396.5 308.7" fill="none" stroke="currentColor" stroke-width="9.7" stroke-linecap="round"/>    <path d="M315.4 152.5 Q373.9 152.6 430.1 169.1" fill="none" stroke="currentColor" stroke-width="8.1" stroke-linecap="round"/>    <circle cx="374.8" cy="170.4" r="5.3"/>    <path d="M26.1 406.8 Q60.5 368.5 103.8 340.5" fill="none" stroke="currentColor" stroke-width="6.8" stroke-linecap="round"/>    <circle cx="66.1" cy="355.6" r="4.3"/>    <path d="M235.0 208.4 Q264.3 203.7 286.5 223.4" fill="none" stroke="currentColor" stroke-width="8.4" stroke-linecap="round"/>    <circle cx="263.5" cy="212.4" r="3.9"/>    <path d="M321.7 219.3 Q369.8 209.9 418.1 201.9" fill="none" stroke="currentColor" stroke-width="8.9" stroke-linecap="round"/>    <circle cx="359.5" cy="232.4" r="3.5"/>    <path d="M185.0 -15.7 Q220.7 -6.0 244.8 22.0" fill="none" stroke="currentColor" stroke-width="6.3" stroke-linecap="round"/>    <path d="M198.1 162.7 Q231.4 172.6 250.5 201.5" fill="none" stroke="currentColor" stroke-width="5.6" stroke-linecap="round"/>    <circle cx="214.1" cy="166.3" r="3.4"/>    <path d="M36.8 257.5 Q75.7 267.5 114.5 256.9" fill="none" stroke="currentColor" stroke-width="6.8" stroke-linecap="round"/>    <circle cx="66.6" cy="258.7" r="3.4"/>    <path d="M335.1 415.0 Q358.4 446.9 385.6 475.6" fill="none" stroke="currentColor" stroke-width="6.6" stroke-linecap="round"/>    <path d="M137.9 476.1 Q193.6 485.5 237.3 521.2" fill="none" stroke="currentColor" stroke-width="9.9" stroke-linecap="round"/>    <path d="M-35.7 471.6 Q10.0 473.8 46.2 501.8" fill="none" stroke="currentColor" stroke-width="6.8" stroke-linecap="round"/>    <path d="M268.2 439.9 Q308.4 460.5 344.3 487.8" fill="none" stroke="currentColor" stroke-width="6.6" stroke-linecap="round"/>    <path d="M210.5 427.1 Q250.3 445.5 283.5 474.3" fill="none" stroke="currentColor" stroke-width="6.8" stroke-linecap="round"/>    <path d="M46.9 455.9 Q87.7 481.4 120.7 516.4" fill="none" stroke="currentColor" stroke-width="7.0" stroke-linecap="round"/>    <path d="M300.7 500.1 Q353.6 531.1 414.3 538.9" fill="none" stroke="currentColor" stroke-width="8.2" stroke-linecap="round"/>    <path d="M89.4 442.8 Q138.1 481.2 199.5 489.9" fill="none" stroke="currentColor" stroke-width="7.0" stroke-linecap="round"/>    <path d="M20.2 418.7 Q61.6 408.9 96.4 433.4" fill="none" stroke="currentColor" stroke-width="10.5" stroke-linecap="round"/>    <path d="M89.1 501.4 Q141.2 511.6 181.2 546.5" fill="none" stroke="currentColor" stroke-width="6.2" stroke-linecap="round"/>    <path d="M242.5 379.5 Q283.7 421.2 321.2 466.1" fill="none" stroke="currentColor" stroke-width="5.9" stroke-linecap="round"/>    <circle cx="290.5" cy="419.6" r="3.4"/>    <path d="M344.0 394.3 Q395.2 393.1 436.1 424.0" fill="none" stroke="currentColor" stroke-width="10.4" stroke-linecap="round"/>    <path d="M174.7 497.0 Q221.4 532.0 261.4 574.5" fill="none" stroke="currentColor" stroke-width="8.5" stroke-linecap="round"/>    <path d="M266.2 505.6 Q308.8 508.1 342.1 534.9" fill="none" stroke="currentColor" stroke-width="7.9" stroke-linecap="round"/>    <path d="M206.4 454.5 Q233.6 498.4 268.8 536.4" fill="none" stroke="currentColor" stroke-width="7.0" stroke-linecap="round"/>    <path d="M154.4 402.0 Q185.2 440.8 218.0 477.8" fill="none" stroke="currentColor" stroke-width="6.1" stroke-linecap="round"/>    <path d="M87.5 414.6 Q114.8 423.9 140.9 436.2" fill="none" stroke="currentColor" stroke-width="7.9" stroke-linecap="round"/>    <path d="M185.0 384.3 Q220.7 394.0 244.8 422.0" fill="none" stroke="currentColor" stroke-width="6.3" stroke-linecap="round"/>    <path d="M464.9 -11.9 Q518.0 -20.1 558.7 -55.0" fill="none" stroke="currentColor" stroke-width="7.3" stroke-linecap="round"/>    <path d="M354.1 -20.9 Q397.4 -56.5 447.3 -82.0" fill="none" stroke="currentColor" stroke-width="10.3" stroke-linecap="round"/>    <path d="M456.3 -80.8 Q469.1 -110.3 500.9 -114.6" fill="none" stroke="currentColor" stroke-width="5.8" stroke-linecap="round"/>    <path d="M494.0 -59.4 Q552.6 -70.0 595.1 -111.8" fill="none" stroke="currentColor" stroke-width="6.2" stroke-linecap="round"/>    <path d="M424.5 -46.7 Q438.4 -75.4 467.6 -88.2" fill="none" stroke="currentColor" stroke-width="10.4" stroke-linecap="round"/>    <path d="M354.3 -89.5 Q409.7 -112.2 466.2 -132.4" fill="none" stroke="currentColor" stroke-width="7.8" stroke-linecap="round"/>    <path d="M426.1 6.8 Q460.5 -31.5 503.8 -59.5" fill="none" stroke="currentColor" stroke-width="6.8" stroke-linecap="round"/>    <path d="M366.2 201.0 Q412.3 188.4 457.0 171.4" fill="none" stroke="currentColor" stroke-width="8.5" stroke-linecap="round"/>    <circle cx="406.2" cy="199.3" r="3.1"/>    <path d="M364.3 71.6 Q410.0 73.8 446.2 101.8" fill="none" stroke="currentColor" stroke-width="6.8" stroke-linecap="round"/>    <path d="M464.9 388.1 Q518.0 379.9 558.7 345.0" fill="none" stroke="currentColor" stroke-width="7.3" stroke-linecap="round"/>    <path d="M354.1 379.1 Q397.4 343.5 447.3 318.0" fill="none" stroke="currentColor" stroke-width="10.3" stroke-linecap="round"/>    <path d="M446.9 55.9 Q487.7 81.4 520.7 116.4" fill="none" stroke="currentColor" stroke-width="7.0" stroke-linecap="round"/>    <path d="M489.4 42.8 Q538.1 81.2 599.5 89.9" fill="none" stroke="currentColor" stroke-width="7.0" stroke-linecap="round"/>    <path d="M420.2 18.7 Q461.6 8.9 496.4 33.4" fill="none" stroke="currentColor" stroke-width="10.5" stroke-linecap="round"/>    <path d="M478.9 252.2 Q521.0 242.8 562.2 230.2" fill="none" stroke="currentColor" stroke-width="8.2" stroke-linecap="round"/>    <path d="M489.1 101.4 Q541.2 111.6 581.2 146.5" fill="none" stroke="currentColor" stroke-width="6.2" stroke-linecap="round"/>    <path d="M483.1 189.0 Q525.0 209.3 569.6 196.0" fill="none" stroke="currentColor" stroke-width="6.8" stroke-linecap="round"/>    <path d="M456.3 319.2 Q469.1 289.7 500.9 285.4" fill="none" stroke="currentColor" stroke-width="5.8" stroke-linecap="round"/>    <path d="M393.1 137.2 Q436.8 151.5 479.8 135.4" fill="none" stroke="currentColor" stroke-width="10.0" stroke-linecap="round"/>    <path d="M494.0 340.6 Q552.6 330.0 595.1 288.2" fill="none" stroke="currentColor" stroke-width="6.2" stroke-linecap="round"/>    <path d="M424.5 353.3 Q438.4 324.6 467.6 311.8" fill="none" stroke="currentColor" stroke-width="10.4" stroke-linecap="round"/>    <path d="M404.0 234.3 Q445.0 235.4 482.3 218.3" fill="none" stroke="currentColor" stroke-width="6.0" stroke-linecap="round"/>    <path d="M354.3 310.5 Q409.7 287.8 466.2 267.6" fill="none" stroke="currentColor" stroke-width="7.8" stroke-linecap="round"/>    <path d="M457.2 128.1 Q488.1 158.7 530.4 168.9" fill="none" stroke="currentColor" stroke-width="7.2" stroke-linecap="round"/>    <path d="M487.5 14.6 Q514.8 23.9 540.9 36.2" fill="none" stroke="currentColor" stroke-width="7.9" stroke-linecap="round"/>    <path d="M444.7 201.4 Q485.4 192.4 522.3 212.0" fill="none" stroke="currentColor" stroke-width="7.9" stroke-linecap="round"/>    <path d="M426.1 406.8 Q460.5 368.5 503.8 340.5" fill="none" stroke="currentColor" stroke-width="6.8" stroke-linecap="round"/>    <path d="M436.8 257.5 Q475.7 267.5 514.5 256.9" fill="none" stroke="currentColor" stroke-width="6.8" stroke-linecap="round"/>    <path d="M364.3 471.6 Q410.0 473.8 446.2 501.8" fill="none" stroke="currentColor" stroke-width="6.8" stroke-linecap="round"/>    <path d="M446.9 455.9 Q487.7 481.4 520.7 516.4" fill="none" stroke="currentColor" stroke-width="7.0" stroke-linecap="round"/>    <path d="M489.4 442.8 Q538.1 481.2 599.5 489.9" fill="none" stroke="currentColor" stroke-width="7.0" stroke-linecap="round"/>    <path d="M420.2 418.7 Q461.6 408.9 496.4 433.4" fill="none" stroke="currentColor" stroke-width="10.5" stroke-linecap="round"/>    <path d="M489.1 501.4 Q541.2 511.6 581.2 546.5" fill="none" stroke="currentColor" stroke-width="6.2" stroke-linecap="round"/>    <path d="M487.5 414.6 Q514.8 423.9 540.9 436.2" fill="none" stroke="currentColor" stroke-width="7.9" stroke-linecap="round"/>
  </g>
</svg>
